G04 #@! TF.GenerationSoftware,KiCad,Pcbnew,8.0.7-1.fc41*
G04 #@! TF.CreationDate,2024-12-31T00:15:44+05:30*
G04 #@! TF.ProjectId,helper,68656c70-6572-42e6-9b69-6361645f7063,rev?*
G04 #@! TF.SameCoordinates,Original*
G04 #@! TF.FileFunction,Paste,Bot*
G04 #@! TF.FilePolarity,Positive*
%FSLAX46Y46*%
G04 Gerber Fmt 4.6, Leading zero omitted, Abs format (unit mm)*
G04 Created by KiCad (PCBNEW 8.0.7-1.fc41) date 2024-12-31 00:15:44*
%MOMM*%
%LPD*%
G01*
G04 APERTURE LIST*
%ADD10R,2.600000X2.600000*%
%ADD11R,1.200000X1.200000*%
%ADD12R,2.000000X2.800000*%
%ADD13R,2.800000X2.600000*%
%ADD14R,2.200000X2.800000*%
%ADD15R,0.930000X1.310000*%
%ADD16R,3.240000X1.310000*%
%ADD17R,0.900000X1.400000*%
%ADD18R,1.100000X0.400000*%
G04 APERTURE END LIST*
D10*
X191235000Y-70720000D03*
X179685000Y-68520000D03*
X153135000Y-89770000D03*
X141585000Y-87570000D03*
X172185000Y-89770000D03*
X160635000Y-87570000D03*
X191235000Y-89770000D03*
X179685000Y-87570000D03*
X134085000Y-108820000D03*
X122535000Y-106620000D03*
X153135000Y-108820000D03*
X141585000Y-106620000D03*
X172185000Y-108820000D03*
X160635000Y-106620000D03*
X153135000Y-127870000D03*
X141585000Y-125670000D03*
X191235000Y-127870000D03*
X179685000Y-125670000D03*
X172185000Y-127870000D03*
X160635000Y-125670000D03*
X134085000Y-127870000D03*
X122535000Y-125670000D03*
X172185000Y-70720000D03*
X160635000Y-68520000D03*
X153135000Y-70764000D03*
X141585000Y-68564000D03*
X134085000Y-89770000D03*
X122535000Y-87570000D03*
X134085000Y-70720000D03*
X122535000Y-68520000D03*
X191235000Y-108820000D03*
X179685000Y-106620000D03*
D11*
X140550900Y-120167600D03*
X140550900Y-117017600D03*
D12*
X202374400Y-100486700D03*
D13*
X190174400Y-100386700D03*
D14*
X197674400Y-93086700D03*
X199574400Y-100486700D03*
D12*
X116433700Y-93150200D03*
D13*
X128633700Y-93250200D03*
D14*
X121133700Y-100550200D03*
X119233700Y-93150200D03*
D15*
X138045000Y-53805000D03*
X140335000Y-53805000D03*
X142625000Y-53805000D03*
D16*
X140335000Y-60495000D03*
D17*
X123225000Y-75042300D03*
X123225000Y-76822300D03*
X123225000Y-78602300D03*
X124425000Y-75042300D03*
X124425000Y-76822300D03*
X124425000Y-78602300D03*
D18*
X120975000Y-81047300D03*
X120975000Y-80397300D03*
X120975000Y-79747300D03*
X120975000Y-79097300D03*
X120975000Y-78447300D03*
X120975000Y-77797300D03*
X120975000Y-77147300D03*
X120975000Y-76497300D03*
X120975000Y-75847300D03*
X120975000Y-75197300D03*
X120975000Y-74547300D03*
X120975000Y-73897300D03*
X120975000Y-73247300D03*
X120975000Y-72597300D03*
X126675000Y-72597300D03*
X126675000Y-73247300D03*
X126675000Y-73897300D03*
X126675000Y-74547300D03*
X126675000Y-75197300D03*
X126675000Y-75847300D03*
X126675000Y-76497300D03*
X126675000Y-77147300D03*
X126675000Y-77797300D03*
X126675000Y-78447300D03*
X126675000Y-79097300D03*
X126675000Y-79747300D03*
X126675000Y-80397300D03*
X126675000Y-81047300D03*
M02*
